# xmcd
#
# Track frame offsets: 
#        1372
#        14684
#        39335
#        56059
#        72932
#        94214
#        113705
#        129116
#        148114
#        165166
#
# Disc length: 2371 seconds
#
# Revision: 0
# Processed by: cddbd v1.5.2PL0 Copyright (c) Steve Scherf et al.
# Submitted via: ExactAudioCopy v0.90b4
#
DISCID=8809310a
DTITLE=Citizen Cope - The Rainwater LP
DYEAR=2010
DGENRE=Alt. Rock
TTITLE0=Keep Askin'
TTITLE1=Healing Hands
TTITLE2=I Couldn't Explain Why
TTITLE3=Lifeline
TTITLE4=Off The Ground
TTITLE5=Jericho
TTITLE6=The Newspaper
TTITLE7=A Father's Son
TTITLE8=Lifeline (Barefeet Version)
TTITLE9=Keep Askin' (Acoustic Version)
EXTD=
EXTT0=
EXTT1=
EXTT2=
EXTT3=
EXTT4=
EXTT5=
EXTT6=
EXTT7=
EXTT8=
EXTT9=
PLAYORDER=
